<svg width="51" height="52" viewBox="0 0 51 52" fill="none" xmlns="http://www.w3.org/2000/svg">
<g clip-path="url(#clip0_23_103)">
<mask id="mask0_23_103" style="mask-type:luminance" maskUnits="userSpaceOnUse" x="0" y="0" width="51" height="52">
<path d="M50.9738 0.108459H0.0765381V51.8184H50.9738V0.108459Z" fill="white"/>
</mask>
<g mask="url(#mask0_23_103)">
<path d="M50.0144 23.6606L27.7936 1.08514C26.5148 -0.214131 24.4373 -0.214131 23.1585 1.08514L18.5456 5.7716L24.3982 11.7176C25.7609 11.2524 27.3189 11.5644 28.4023 12.6651C29.4912 13.7715 29.7985 15.3714 29.3293 16.7615L34.9698 22.4919C36.3324 22.0154 37.9071 22.3216 39.0017 23.4337C40.5262 24.9827 40.5262 27.4904 39.0017 29.0393C37.4772 30.5883 35.0087 30.5883 33.4842 29.0393C32.3394 27.8761 32.0546 26.1627 32.6353 24.7274L27.3748 19.3827V33.4478C27.749 33.635 28.0952 33.8846 28.408 34.1967C29.9325 35.7456 29.9325 38.2533 28.408 39.8023C26.8833 41.3512 24.415 41.3512 22.8905 39.8023C21.3658 38.2533 21.3658 35.7456 22.8905 34.1967C23.2647 33.8166 23.7003 33.5272 24.1693 33.3343V19.1388C23.7057 18.9459 23.2701 18.6565 22.8905 18.2764C21.7345 17.1076 21.4608 15.3828 22.0527 13.9417L16.2728 8.0751L1.03824 23.5585C-0.240612 24.8579 -0.240612 26.9684 1.03824 28.2676L23.259 50.8433C24.5378 52.1425 26.6153 52.1425 27.8941 50.8433L50.0144 28.3698C51.2933 27.0705 51.2933 24.9599 50.0144 23.6606Z" fill="black"/>
</g>
</g>
<defs>
<clipPath id="clip0_23_103">
<rect width="51" height="52" fill="white"/>
</clipPath>
</defs>
</svg>
