<svg width="15" height="15" viewBox="0 0 15 15" fill="none" xmlns="http://www.w3.org/2000/svg">
<g clip-path="url(#clip0_38_2)">
<mask id="mask0_38_2" style="mask-type:luminance" maskUnits="userSpaceOnUse" x="0" y="0" width="15" height="15">
<path d="M15 0H0V15H15V0Z" fill="white"/>
</mask>
<g mask="url(#mask0_38_2)">
<path d="M7.5 0C3.35875 0 0 3.35813 0 7.5C0 10.8138 2.14875 13.625 5.12936 14.6169C5.50376 14.6862 5.625 14.4537 5.625 14.2563V12.86C3.53875 13.3137 3.10437 11.975 3.10437 11.975C2.76312 11.1081 2.27125 10.8775 2.27125 10.8775C1.59063 10.4119 2.32313 10.4219 2.32313 10.4219C3.07625 10.4744 3.4725 11.195 3.4725 11.195C4.14125 12.3413 5.22686 12.01 5.655 11.8181C5.72186 11.3337 5.91626 11.0025 6.13127 10.8156C4.46563 10.625 2.71437 9.98186 2.71437 7.10876C2.71437 6.28937 3.0075 5.62063 3.48687 5.09563C3.40938 4.90624 3.1525 4.14312 3.56 3.11063C3.56 3.11063 4.19 2.90937 5.62311 3.87938C6.22123 3.71313 6.8625 3.63 7.5 3.62688C8.1375 3.63 8.77937 3.71313 9.37877 3.87938C10.8106 2.90937 11.4394 3.11063 11.4394 3.11063C11.8475 4.14375 11.5906 4.90689 11.5131 5.09563C11.9944 5.62063 12.285 6.29001 12.285 7.10876C12.285 9.98936 10.5306 10.6238 8.86063 10.8094C9.12939 11.0419 9.375 11.4981 9.375 12.1981V14.2563C9.375 14.4556 9.495 14.69 9.87561 14.6163C12.8538 13.6231 15 10.8125 15 7.5C15 3.35813 11.6419 0 7.5 0Z" fill="black"/>
</g>
</g>
<defs>
<clipPath id="clip0_38_2">
<rect width="15" height="15" fill="white"/>
</clipPath>
</defs>
</svg>
