<svg width="44" height="50" viewBox="0 0 44 50" fill="none" xmlns="http://www.w3.org/2000/svg">
<g clip-path="url(#clip0_48_2)">
<path d="M4.00416 45.018L0 0.186127H44L39.9915 45.0109L21.973 49.9973L4.00416 45.018Z" fill="black"/>
<path d="M22 46.1858L36.5598 42.1566L39.9853 3.85178H22V46.1858Z" fill="black"/>
<path d="M22 20.4793H14.711L14.2076 14.8488H22V9.35028H8.18762L8.31948 10.8254L9.67332 25.9776H22V20.4793ZM22 34.7593L21.9759 34.7657L15.8411 33.1122L15.449 28.727H9.91944L10.6912 37.3603L21.9746 40.487L22 40.48V34.7593Z" fill="white"/>
<path d="M21.981 20.4793V25.9776H28.7638L28.1244 33.1087L21.981 34.7639V40.4844L33.2733 37.3603L33.3561 36.4313L34.6505 21.9557L34.7849 20.4793H33.3006H21.981ZM21.981 9.35028V14.8488H35.2861L35.3966 13.6129L35.6476 10.8254L35.7793 9.35028H21.981Z" fill="white"/>
</g>
<defs>
<clipPath id="clip0_48_2">
<rect width="44" height="50" fill="white"/>
</clipPath>
</defs>
</svg>
