<svg width="21" height="20" viewBox="0 0 21 20" fill="none" xmlns="http://www.w3.org/2000/svg">
<path d="M17.6101 16.6683H14.6839V12.1289C14.6839 11.0465 14.6644 9.65305 13.162 9.65305C11.638 9.65305 11.4048 10.8324 11.4048 12.0501V16.668H8.47857V7.33327H11.2877V8.60896H11.327C11.6082 8.13281 12.0144 7.74112 12.5025 7.47558C12.9906 7.21005 13.5422 7.08062 14.0987 7.10108C17.0645 7.10108 17.6114 9.03348 17.6114 11.5474L17.6101 16.6683ZM5.17684 6.05728C4.84098 6.05734 4.51265 5.95875 4.23336 5.77397C3.95408 5.58919 3.73638 5.32652 3.6078 5.01918C3.47922 4.71184 3.44553 4.37363 3.51099 4.04733C3.57645 3.72102 3.73812 3.42128 3.97557 3.18599C4.21301 2.9507 4.51556 2.79044 4.84495 2.72548C5.17434 2.66052 5.51578 2.69377 5.82609 2.82103C6.1364 2.94829 6.40165 3.16384 6.58829 3.44042C6.77493 3.71701 6.87458 4.04221 6.87464 4.37489C6.87468 4.59579 6.8308 4.81453 6.7455 5.01862C6.6602 5.22272 6.53515 5.40817 6.37749 5.5644C6.21984 5.72062 6.03266 5.84456 5.82665 5.92913C5.62064 6.0137 5.39984 6.05725 5.17684 6.05728ZM6.63994 16.6683H3.71068V7.33327H6.63994V16.6683ZM19.069 0.00133231H2.24027C1.85831 -0.00293749 1.49025 0.143181 1.21699 0.407578C0.943731 0.671976 0.787621 1.03302 0.782959 1.41138V18.1505C0.787461 18.529 0.943476 18.8903 1.21673 19.155C1.48998 19.4196 1.85812 19.5661 2.24027 19.562H19.069C19.4519 19.5668 19.8211 19.4208 20.0954 19.1561C20.3697 18.8915 20.5268 18.5298 20.5321 18.1505V1.41017C20.5266 1.03106 20.3695 0.669608 20.0951 0.405217C19.8208 0.140826 19.4517 -0.0048754 19.069 0.000124563" fill="white"/>
</svg>
