<svg width="48" height="46" viewBox="0 0 48 46" fill="none" xmlns="http://www.w3.org/2000/svg">
<path fill-rule="evenodd" clip-rule="evenodd" d="M23.9098 0.15094C10.6881 0.15094 0 10.6584 0 23.6566C0 34.0473 6.8483 42.8424 16.3488 45.9559C17.5364 46.1894 17.9718 45.4499 17.9718 44.8272C17.9718 44.2824 17.9323 42.4144 17.9323 40.4687C11.2819 41.8696 9.8964 37.6667 9.8964 37.6667C8.82758 34.9425 7.24416 34.242 7.24416 34.242C5.06696 32.802 7.40251 32.802 7.40251 32.802C9.81722 32.9577 11.084 35.2148 11.084 35.2148C13.2216 38.7952 16.6655 37.7834 18.0511 37.1607C18.2489 35.643 18.8824 34.5922 19.5553 34.0085C14.2508 33.4635 8.66923 31.44 8.66923 22.4113C8.66923 19.8428 9.6193 17.7412 11.1236 16.1068C10.886 15.523 10.0547 13.1102 11.3611 9.8801C11.3611 9.8801 13.3799 9.25743 17.9323 12.2929C19.8324 11.787 21.8907 11.5146 23.9098 11.5146C25.9286 11.5146 27.9869 11.787 29.887 12.2929C34.4394 9.25743 36.4582 9.8801 36.4582 9.8801C37.7646 13.1102 36.9333 15.523 36.6958 16.1068C38.2396 17.7412 39.1502 19.8428 39.1502 22.4113C39.1502 31.44 33.5686 33.4247 28.2244 34.0085C29.0954 34.7478 29.8476 36.1488 29.8476 38.3672C29.8476 41.5194 29.8079 44.0489 29.8079 44.8272C29.8079 45.4499 30.2433 46.1894 31.4309 45.9559C40.9315 42.8424 47.7797 34.0473 47.7797 23.6566C47.8194 10.6584 37.0917 0.15094 23.9098 0.15094Z" fill="black"/>
</svg>
