<svg width="51" height="51" viewBox="0 0 51 51" fill="none" xmlns="http://www.w3.org/2000/svg">
<path d="M0.5625 0.5625V50.4375H50.4375V0.5625H0.5625ZM27.2812 39.3047C27.2812 44.1597 24.4134 46.5265 20.262 46.5265C16.5125 46.5265 14.336 44.585 13.2316 42.2415L17.048 39.9315C17.7838 41.2373 18.3427 42.3417 19.9492 42.3417C21.2851 42.3417 22.3828 41.7394 22.3828 39.396V23.7188H27.2812V39.3047ZM38.3417 46.4152C33.9899 46.4152 31.1777 44.4514 29.8051 41.7394L33.627 39.5273C34.6289 41.1683 35.937 42.2616 38.2471 42.2616C40.1886 42.2616 41.3164 41.4021 41.3164 40.0628C41.3164 38.4564 40.1552 37.8875 38.0122 36.9456L36.841 36.4424C33.4588 35.0041 31.2167 33.1961 31.2167 29.3787C31.2167 25.864 33.8941 23.2968 38.079 23.2968C41.0592 23.2968 43.2001 24.2231 44.742 26.935L41.0859 29.2852C40.2821 27.8457 39.416 27.2812 38.0734 27.2812C36.7007 27.2812 35.8301 28.1518 35.8301 29.2852C35.8301 30.6912 36.7007 31.2601 38.7091 32.1307L39.8803 32.6328C43.8647 34.3406 46.1079 36.084 46.1079 39.9983C46.1091 44.2176 42.7948 46.4152 38.3417 46.4152Z" fill="black"/>
</svg>
