<svg width="15" height="15" viewBox="0 0 15 15" fill="none" xmlns="http://www.w3.org/2000/svg">
<g clip-path="url(#clip0_21_57)">
<path d="M0 15L1.05438 11.1481C0.40375 10.0206 0.061875 8.7425 0.0625 7.43187C0.064375 3.33437 3.39875 0 7.49563 0C9.48375 0.000625 11.35 0.775 12.7537 2.18C14.1569 3.585 14.9294 5.4525 14.9288 7.43875C14.9269 11.5369 11.5925 14.8713 7.49563 14.8713C6.25187 14.8706 5.02625 14.5588 3.94062 13.9663L0 15ZM11.24 9.20563C11.1937 9.12813 11.07 9.08187 10.8837 8.98875C10.6981 8.89563 9.785 8.44625 9.61438 8.38437C9.44438 8.3225 9.32063 8.29125 9.19625 8.4775C9.0725 8.66313 8.71625 9.08187 8.60812 9.20563C8.5 9.32938 8.39125 9.345 8.20562 9.25187C8.02 9.15875 7.42125 8.96313 6.71187 8.33C6.16 7.8375 5.78688 7.22937 5.67875 7.04313C5.57063 6.8575 5.6675 6.75688 5.76 6.66438C5.84375 6.58125 5.94562 6.4475 6.03875 6.33875C6.13312 6.23125 6.16375 6.15375 6.22625 6.02938C6.28813 5.90563 6.2575 5.79688 6.21063 5.70375C6.16375 5.61125 5.7925 4.69688 5.63812 4.325C5.48688 3.96312 5.33375 4.01187 5.22 4.00625L4.86375 4C4.74 4 4.53875 4.04625 4.36875 4.2325C4.19875 4.41875 3.71875 4.8675 3.71875 5.78188C3.71875 6.69625 4.38438 7.57937 4.47688 7.70312C4.57 7.82687 5.78625 9.70312 7.64937 10.5075C8.0925 10.6988 8.43875 10.8131 8.70813 10.8988C9.15312 11.04 9.55813 11.02 9.87813 10.9725C10.235 10.9194 10.9769 10.5231 11.1319 10.0894C11.2869 9.655 11.2869 9.28312 11.24 9.20563Z" fill="black"/>
</g>
<defs>
<clipPath id="clip0_21_57">
<rect width="15" height="15" fill="white"/>
</clipPath>
</defs>
</svg>
